<svg width="149" height="35" viewBox="0 0 149 35" fill="none" xmlns="http://www.w3.org/2000/svg">
<path d="M5.49592 4.31493C0.831095 22.0413 -0.451732 28.4554 0.131371 30.3213C1.06434 33.3535 6.42889 35.2194 12.9596 34.7529C17.9743 34.4031 18.6741 34.0532 19.4904 31.2543C20.3067 27.9889 20.3067 27.9889 14.8256 27.9889C11.7934 27.9889 8.99454 27.7557 8.64468 27.4058C8.29482 27.0559 9.46102 20.8751 11.327 13.6446C13.1929 6.41409 14.709 0.466442 14.709 0.233204C14.709 0.116581 12.843 -3.8147e-05 10.6272 -3.8147e-05C7.01199 -3.8147e-05 6.54551 0.349823 5.49592 4.31493Z" fill="white"/>
<path d="M32.4353 2.4491C32.7851 4.89813 36.1671 8.04689 37.3333 6.9973C37.5666 6.64744 38.1497 5.01475 38.6162 3.14882C39.4325 0.233303 39.1993 6.1512e-05 35.7006 6.1512e-05C32.6685 6.1512e-05 32.0854 0.349924 32.4353 2.4491Z" fill="#FF526B"/>
<path d="M75.9348 1.39947C75.7015 2.21581 73.6024 10.146 71.3866 19.0092L67.4215 34.9862H71.3866C73.6024 34.9862 75.7015 34.2865 75.9348 33.5868C76.168 32.7704 76.9844 29.7383 77.8007 26.8228L79.0835 21.5748L81.8824 27.056C83.3985 30.0881 85.7309 33.1203 86.8971 33.82C89.5794 35.2195 95.1772 35.4527 95.1772 34.0532C95.1772 33.5868 93.3113 30.3214 91.0955 26.8228L87.0137 20.5253L90.7456 17.4931C92.8448 15.8604 96.1102 13.1782 98.0927 11.4288L101.591 8.28009L96.6933 8.16347C92.9614 8.16347 90.629 9.09643 86.5473 12.2452C83.5151 14.461 80.9495 16.3269 80.7162 16.3269C80.483 16.3269 81.1827 12.5951 82.3489 8.16347L84.4481 1.90735e-05H80.483C78.2672 1.90735e-05 76.168 0.699741 75.9348 1.39947Z" fill="white"/>
<path d="M24.8549 11.3122C24.5051 13.2948 24.8549 14.9275 25.9045 15.7438C27.1873 16.6768 27.0707 18.3095 25.2048 25.6566C23.922 30.438 22.8724 34.5197 22.8724 34.6363C22.8724 34.8696 24.7383 34.9862 26.9541 34.9862C31.3857 34.9862 31.7355 34.2865 34.7677 19.359C36.1671 12.8283 36.1671 12.4784 33.4849 10.3792C29.4031 6.99725 25.5547 7.46373 24.8549 11.3122Z" fill="white"/>
<path d="M45.0303 9.67953C42.8145 10.8457 41.5317 13.0615 39.6658 19.8255C35.1176 36.0358 35.1176 34.9862 39.6658 34.9862C44.0973 34.9862 43.7475 35.8025 47.4793 20.6419C48.7622 15.5106 48.9954 15.1607 52.7273 15.1607C58.2084 15.1607 59.3747 17.843 57.2755 25.7732C54.8264 34.6363 54.9431 34.9862 59.3747 34.9862C63.3398 34.9862 63.3398 34.9862 65.2057 26.7061C67.3049 16.7934 66.2553 12.4784 61.2406 9.91277C57.2755 7.81359 48.9954 7.69697 45.0303 9.67953Z" fill="white"/>
<path d="M105.673 10.7291C97.2764 15.1607 93.6611 25.5399 98.5592 31.6042C100.542 34.0532 101.941 34.4031 110.688 34.753C120.134 35.2194 120.484 35.1028 121.184 32.4205C121.65 31.0211 122 29.3884 122 28.8053C122 28.3388 118.385 27.989 113.837 27.989C106.956 27.989 105.556 27.6391 104.507 25.6565C103.574 23.9072 103.691 22.5078 104.973 19.9421C106.956 16.0937 108.938 15.1607 114.536 15.1607C117.568 15.1607 118.268 15.5106 117.802 16.91C117.335 17.843 115.702 18.6593 113.953 18.6593C109.871 18.6593 107.656 20.292 108.239 22.8577C108.705 25.4233 112.32 26.2397 118.151 25.0734C125.499 23.674 127.831 11.7787 121.3 9.32966C116.519 7.46373 111.154 7.93021 105.673 10.7291Z" fill="white"/>
<path d="M136.578 9.21304C132.496 10.9624 130.397 14.3444 127.948 23.3241C124.682 34.753 124.799 34.9862 129.464 34.9862C133.429 34.9862 133.429 34.9862 135.411 26.4729C137.86 16.4435 138.56 15.3939 143.342 14.9275C146.14 14.6942 147.073 13.8779 147.773 11.3122C148.589 8.28008 148.473 8.16346 143.808 8.28008C141.126 8.28008 137.86 8.74656 136.578 9.21304Z" fill="white"/>
</svg>
